<?xml version="1.0" encoding="UTF-8" standalone="no"?>
<!-- Generator: Adobe Illustrator 19.0.0, SVG Export Plug-In . SVG Version: 6.00 Build 0)  -->

<svg
   xmlns:dc="http://purl.org/dc/elements/1.1/"
   xmlns:cc="http://creativecommons.org/ns#"
   xmlns:rdf="http://www.w3.org/1999/02/22-rdf-syntax-ns#"
   xmlns:svg="http://www.w3.org/2000/svg"
   xmlns="http://www.w3.org/2000/svg"
   xmlns:sodipodi="http://sodipodi.sourceforge.net/DTD/sodipodi-0.dtd"
   xmlns:inkscape="http://www.inkscape.org/namespaces/inkscape"
   version="1.1"
   id="Layer_1"
   x="0px"
   y="0px"
   viewBox="0 0 511.999 511.999"
   style="enable-background:new 0 0 511.999 511.999;"
   xml:space="preserve"
   sodipodi:docname="logo.svg"
   inkscape:version="0.92.4 (5da689c313, 2019-01-14)"><metadata
   id="metadata53"><rdf:RDF><cc:Work
       rdf:about=""><dc:format>image/svg+xml</dc:format><dc:type
         rdf:resource="http://purl.org/dc/dcmitype/StillImage" /></cc:Work></rdf:RDF></metadata><defs
   id="defs51" /><sodipodi:namedview
   pagecolor="#ffffff"
   bordercolor="#666666"
   borderopacity="1"
   objecttolerance="10"
   gridtolerance="10"
   guidetolerance="10"
   inkscape:pageopacity="0"
   inkscape:pageshadow="2"
   inkscape:window-width="1920"
   inkscape:window-height="1024"
   id="namedview49"
   showgrid="false"
   inkscape:zoom="0.92187681"
   inkscape:cx="111.54525"
   inkscape:cy="203.79589"
   inkscape:window-x="0"
   inkscape:window-y="28"
   inkscape:window-maximized="1"
   inkscape:current-layer="Layer_1" />
<polygon
   style="fill:#EFEFEF;"
   points="44.97,441.869 44.97,192.242 181.639,70.13 318.307,192.242 318.307,441.869 "
   id="polygon2" />
<path
   style="fill:#8d6e63;fill-opacity:1"
   d="M181.639,234.132L181.639,234.132c-33.212,0-60.134,26.923-60.134,60.134v147.602h120.269V294.267  C241.773,261.056,214.85,234.132,181.639,234.132z"
   id="path4" />
<rect
   x="318.307"
   y="192.036"
   style="fill:#D1D5D8;"
   width="114.802"
   height="249.831"
   id="rect6" />
<polygon
   style="fill:#8d6e63;fill-opacity:1"
   points="181.639,70.13 350.726,222.837 501.066,222.837 333.801,70.13 "
   id="polygon8" />
<g
   id="g16">
	<path
   style="fill:#231F20;"
   d="M508.437,214.763L341.173,62.055c-2.015-1.839-4.643-2.859-7.371-2.859H181.639   c-2.605,0-5.211,0.927-7.285,2.78L3.649,214.499c-4.502,4.024-4.892,10.935-0.868,15.438c2.16,2.417,5.152,3.649,8.157,3.649   c2.592,0,5.195-0.917,7.281-2.78l15.818-14.133v225.196c0,6.039,4.896,10.934,10.934,10.934h431.025   c6.037,0,10.934-4.895,10.934-10.934c0-6.039-4.896-10.934-10.934-10.934h-31.952V233.771h57.023c4.513,0,8.562-2.773,10.193-6.98   C512.89,222.583,511.771,217.805,508.437,214.763z M256.761,81.063l143.312,130.84h-45.14L210.057,81.063H256.761z M55.903,197.136   L181.599,84.827l125.775,113.59v232.519h-54.668V294.267c0-39.187-31.881-71.068-71.068-71.068s-71.068,31.881-71.068,71.068   v136.669H55.903C55.903,430.936,55.903,197.136,55.903,197.136z M132.438,430.936V294.267c0-27.129,22.071-49.201,49.201-49.201   s49.201,22.071,49.201,49.201v136.669H132.438z M329.241,218.166l14.157,12.786c2.01,1.815,4.621,2.82,7.328,2.82h71.451v197.165   h-92.935V218.166z M432.505,211.904L289.193,81.063h40.369l143.312,130.84H432.505z"
   id="path10" />
	<path
   style="fill:#231F20;"
   d="M120.852,197.585h2.537c6.037,0,10.934-4.895,10.934-10.934s-4.896-10.934-10.934-10.934h-2.537   c-6.037,0-10.934,4.895-10.934,10.934S114.814,197.585,120.852,197.585z"
   id="path12" />
	<path
   style="fill:#231F20;"
   d="M165.483,197.585h76.29c6.037,0,10.934-4.895,10.934-10.934s-4.896-10.934-10.934-10.934h-76.29   c-6.037,0-10.934,4.895-10.934,10.934S159.445,197.585,165.483,197.585z"
   id="path14" />
</g>
<g
   id="g18">
</g>
<g
   id="g20">
</g>
<g
   id="g22">
</g>
<g
   id="g24">
</g>
<g
   id="g26">
</g>
<g
   id="g28">
</g>
<g
   id="g30">
</g>
<g
   id="g32">
</g>
<g
   id="g34">
</g>
<g
   id="g36">
</g>
<g
   id="g38">
</g>
<g
   id="g40">
</g>
<g
   id="g42">
</g>
<g
   id="g44">
</g>
<g
   id="g46">
</g>
</svg>
